<mxfile host="app.diagrams.net" modified="2024-04-22T06:50:09.393Z" agent="Mozilla/5.0 (Macintosh; Intel Mac OS X 10_15_7) AppleWebKit/537.36 (KHTML, like Gecko) Chrome/124.0.0.0 Safari/537.36" etag="Dn1D8JTv_k_CL5TlcKjo" version="24.2.7" type="github">
  <diagram name="Page-1" id="o7TmA1QrKZWusFfurLSE">
    <mxGraphModel dx="1026" dy="685" grid="1" gridSize="10" guides="1" tooltips="1" connect="1" arrows="1" fold="1" page="1" pageScale="1" pageWidth="827" pageHeight="1169" math="0" shadow="0">
      <root>
        <mxCell id="0" />
        <mxCell id="1" parent="0" />
        <mxCell id="f_WUbL0dvEo4hb0WviOG-1" value="Categories&lt;div&gt;&lt;br&gt;&lt;/div&gt;&lt;div&gt;&lt;br&gt;&lt;/div&gt;&lt;div&gt;A. Spritual&lt;/div&gt;&lt;div&gt;B. Health&lt;/div&gt;&lt;div&gt;C. Business&lt;/div&gt;&lt;div&gt;D. Job&lt;/div&gt;&lt;div&gt;&lt;br&gt;&lt;/div&gt;&lt;div&gt;&lt;br&gt;&lt;/div&gt;&lt;div&gt;Business&lt;/div&gt;&lt;div&gt;1.&amp;nbsp;&lt;/div&gt;" style="rounded=0;whiteSpace=wrap;html=1;" vertex="1" parent="1">
          <mxGeometry x="52" y="80" width="190" height="820" as="geometry" />
        </mxCell>
        <mxCell id="f_WUbL0dvEo4hb0WviOG-2" value="Master List of Activity" style="text;html=1;align=center;verticalAlign=middle;resizable=0;points=[];autosize=1;strokeColor=none;fillColor=none;" vertex="1" parent="1">
          <mxGeometry x="50" y="28" width="140" height="30" as="geometry" />
        </mxCell>
        <mxCell id="f_WUbL0dvEo4hb0WviOG-4" value="" style="shape=table;startSize=0;container=1;collapsible=0;childLayout=tableLayout;" vertex="1" parent="1">
          <mxGeometry x="350" y="90" width="510" height="440" as="geometry" />
        </mxCell>
        <mxCell id="f_WUbL0dvEo4hb0WviOG-5" value="" style="shape=tableRow;horizontal=0;startSize=0;swimlaneHead=0;swimlaneBody=0;strokeColor=inherit;top=0;left=0;bottom=0;right=0;collapsible=0;dropTarget=0;fillColor=none;points=[[0,0.5],[1,0.5]];portConstraint=eastwest;" vertex="1" parent="f_WUbL0dvEo4hb0WviOG-4">
          <mxGeometry width="510" height="40" as="geometry" />
        </mxCell>
        <mxCell id="f_WUbL0dvEo4hb0WviOG-6" value="Sr No" style="shape=partialRectangle;html=1;whiteSpace=wrap;connectable=0;strokeColor=inherit;overflow=hidden;fillColor=none;top=0;left=0;bottom=0;right=0;pointerEvents=1;align=center;" vertex="1" parent="f_WUbL0dvEo4hb0WviOG-5">
          <mxGeometry width="74" height="40" as="geometry">
            <mxRectangle width="74" height="40" as="alternateBounds" />
          </mxGeometry>
        </mxCell>
        <mxCell id="f_WUbL0dvEo4hb0WviOG-7" value="Topic" style="shape=partialRectangle;html=1;whiteSpace=wrap;connectable=0;strokeColor=inherit;overflow=hidden;fillColor=none;top=0;left=0;bottom=0;right=0;pointerEvents=1;" vertex="1" parent="f_WUbL0dvEo4hb0WviOG-5">
          <mxGeometry x="74" width="266" height="40" as="geometry">
            <mxRectangle width="266" height="40" as="alternateBounds" />
          </mxGeometry>
        </mxCell>
        <mxCell id="f_WUbL0dvEo4hb0WviOG-21" value="Time" style="shape=partialRectangle;html=1;whiteSpace=wrap;connectable=0;strokeColor=inherit;overflow=hidden;fillColor=none;top=0;left=0;bottom=0;right=0;pointerEvents=1;" vertex="1" parent="f_WUbL0dvEo4hb0WviOG-5">
          <mxGeometry x="340" width="70" height="40" as="geometry">
            <mxRectangle width="70" height="40" as="alternateBounds" />
          </mxGeometry>
        </mxCell>
        <mxCell id="f_WUbL0dvEo4hb0WviOG-17" value="Frequency" style="shape=partialRectangle;html=1;whiteSpace=wrap;connectable=0;strokeColor=inherit;overflow=hidden;fillColor=none;top=0;left=0;bottom=0;right=0;pointerEvents=1;" vertex="1" parent="f_WUbL0dvEo4hb0WviOG-5">
          <mxGeometry x="410" width="100" height="40" as="geometry">
            <mxRectangle width="100" height="40" as="alternateBounds" />
          </mxGeometry>
        </mxCell>
        <mxCell id="f_WUbL0dvEo4hb0WviOG-8" value="" style="shape=tableRow;horizontal=0;startSize=0;swimlaneHead=0;swimlaneBody=0;strokeColor=inherit;top=0;left=0;bottom=0;right=0;collapsible=0;dropTarget=0;fillColor=none;points=[[0,0.5],[1,0.5]];portConstraint=eastwest;" vertex="1" parent="f_WUbL0dvEo4hb0WviOG-4">
          <mxGeometry y="40" width="510" height="40" as="geometry" />
        </mxCell>
        <mxCell id="f_WUbL0dvEo4hb0WviOG-9" value="1" style="shape=partialRectangle;html=1;whiteSpace=wrap;connectable=0;strokeColor=inherit;overflow=hidden;fillColor=none;top=0;left=0;bottom=0;right=0;pointerEvents=1;" vertex="1" parent="f_WUbL0dvEo4hb0WviOG-8">
          <mxGeometry width="74" height="40" as="geometry">
            <mxRectangle width="74" height="40" as="alternateBounds" />
          </mxGeometry>
        </mxCell>
        <mxCell id="f_WUbL0dvEo4hb0WviOG-10" value="Write Sodashgranth Names" style="shape=partialRectangle;html=1;whiteSpace=wrap;connectable=0;strokeColor=inherit;overflow=hidden;fillColor=none;top=0;left=0;bottom=0;right=0;pointerEvents=1;" vertex="1" parent="f_WUbL0dvEo4hb0WviOG-8">
          <mxGeometry x="74" width="266" height="40" as="geometry">
            <mxRectangle width="266" height="40" as="alternateBounds" />
          </mxGeometry>
        </mxCell>
        <mxCell id="f_WUbL0dvEo4hb0WviOG-22" value="5min" style="shape=partialRectangle;html=1;whiteSpace=wrap;connectable=0;strokeColor=inherit;overflow=hidden;fillColor=none;top=0;left=0;bottom=0;right=0;pointerEvents=1;" vertex="1" parent="f_WUbL0dvEo4hb0WviOG-8">
          <mxGeometry x="340" width="70" height="40" as="geometry">
            <mxRectangle width="70" height="40" as="alternateBounds" />
          </mxGeometry>
        </mxCell>
        <mxCell id="f_WUbL0dvEo4hb0WviOG-18" value="Daily" style="shape=partialRectangle;html=1;whiteSpace=wrap;connectable=0;strokeColor=inherit;overflow=hidden;fillColor=none;top=0;left=0;bottom=0;right=0;pointerEvents=1;" vertex="1" parent="f_WUbL0dvEo4hb0WviOG-8">
          <mxGeometry x="410" width="100" height="40" as="geometry">
            <mxRectangle width="100" height="40" as="alternateBounds" />
          </mxGeometry>
        </mxCell>
        <mxCell id="f_WUbL0dvEo4hb0WviOG-11" value="" style="shape=tableRow;horizontal=0;startSize=0;swimlaneHead=0;swimlaneBody=0;strokeColor=inherit;top=0;left=0;bottom=0;right=0;collapsible=0;dropTarget=0;fillColor=none;points=[[0,0.5],[1,0.5]];portConstraint=eastwest;" vertex="1" parent="f_WUbL0dvEo4hb0WviOG-4">
          <mxGeometry y="80" width="510" height="40" as="geometry" />
        </mxCell>
        <mxCell id="f_WUbL0dvEo4hb0WviOG-12" value="2" style="shape=partialRectangle;html=1;whiteSpace=wrap;connectable=0;strokeColor=inherit;overflow=hidden;fillColor=none;top=0;left=0;bottom=0;right=0;pointerEvents=1;" vertex="1" parent="f_WUbL0dvEo4hb0WviOG-11">
          <mxGeometry width="74" height="40" as="geometry">
            <mxRectangle width="74" height="40" as="alternateBounds" />
          </mxGeometry>
        </mxCell>
        <mxCell id="f_WUbL0dvEo4hb0WviOG-13" value="Read 1 sodashgranth / day" style="shape=partialRectangle;html=1;whiteSpace=wrap;connectable=0;strokeColor=inherit;overflow=hidden;fillColor=none;top=0;left=0;bottom=0;right=0;pointerEvents=1;" vertex="1" parent="f_WUbL0dvEo4hb0WviOG-11">
          <mxGeometry x="74" width="266" height="40" as="geometry">
            <mxRectangle width="266" height="40" as="alternateBounds" />
          </mxGeometry>
        </mxCell>
        <mxCell id="f_WUbL0dvEo4hb0WviOG-23" value="15min" style="shape=partialRectangle;html=1;whiteSpace=wrap;connectable=0;strokeColor=inherit;overflow=hidden;fillColor=none;top=0;left=0;bottom=0;right=0;pointerEvents=1;" vertex="1" parent="f_WUbL0dvEo4hb0WviOG-11">
          <mxGeometry x="340" width="70" height="40" as="geometry">
            <mxRectangle width="70" height="40" as="alternateBounds" />
          </mxGeometry>
        </mxCell>
        <mxCell id="f_WUbL0dvEo4hb0WviOG-19" value="Daily" style="shape=partialRectangle;html=1;whiteSpace=wrap;connectable=0;strokeColor=inherit;overflow=hidden;fillColor=none;top=0;left=0;bottom=0;right=0;pointerEvents=1;" vertex="1" parent="f_WUbL0dvEo4hb0WviOG-11">
          <mxGeometry x="410" width="100" height="40" as="geometry">
            <mxRectangle width="100" height="40" as="alternateBounds" />
          </mxGeometry>
        </mxCell>
        <mxCell id="f_WUbL0dvEo4hb0WviOG-25" style="shape=tableRow;horizontal=0;startSize=0;swimlaneHead=0;swimlaneBody=0;strokeColor=inherit;top=0;left=0;bottom=0;right=0;collapsible=0;dropTarget=0;fillColor=none;points=[[0,0.5],[1,0.5]];portConstraint=eastwest;" vertex="1" parent="f_WUbL0dvEo4hb0WviOG-4">
          <mxGeometry y="120" width="510" height="40" as="geometry" />
        </mxCell>
        <mxCell id="f_WUbL0dvEo4hb0WviOG-26" value="3" style="shape=partialRectangle;html=1;whiteSpace=wrap;connectable=0;strokeColor=inherit;overflow=hidden;fillColor=none;top=0;left=0;bottom=0;right=0;pointerEvents=1;" vertex="1" parent="f_WUbL0dvEo4hb0WviOG-25">
          <mxGeometry width="74" height="40" as="geometry">
            <mxRectangle width="74" height="40" as="alternateBounds" />
          </mxGeometry>
        </mxCell>
        <mxCell id="f_WUbL0dvEo4hb0WviOG-27" value="Read Dadaji na 78 varta" style="shape=partialRectangle;html=1;whiteSpace=wrap;connectable=0;strokeColor=inherit;overflow=hidden;fillColor=none;top=0;left=0;bottom=0;right=0;pointerEvents=1;" vertex="1" parent="f_WUbL0dvEo4hb0WviOG-25">
          <mxGeometry x="74" width="266" height="40" as="geometry">
            <mxRectangle width="266" height="40" as="alternateBounds" />
          </mxGeometry>
        </mxCell>
        <mxCell id="f_WUbL0dvEo4hb0WviOG-28" value="30min" style="shape=partialRectangle;html=1;whiteSpace=wrap;connectable=0;strokeColor=inherit;overflow=hidden;fillColor=none;top=0;left=0;bottom=0;right=0;pointerEvents=1;" vertex="1" parent="f_WUbL0dvEo4hb0WviOG-25">
          <mxGeometry x="340" width="70" height="40" as="geometry">
            <mxRectangle width="70" height="40" as="alternateBounds" />
          </mxGeometry>
        </mxCell>
        <mxCell id="f_WUbL0dvEo4hb0WviOG-29" value="Daily" style="shape=partialRectangle;html=1;whiteSpace=wrap;connectable=0;strokeColor=inherit;overflow=hidden;fillColor=none;top=0;left=0;bottom=0;right=0;pointerEvents=1;" vertex="1" parent="f_WUbL0dvEo4hb0WviOG-25">
          <mxGeometry x="410" width="100" height="40" as="geometry">
            <mxRectangle width="100" height="40" as="alternateBounds" />
          </mxGeometry>
        </mxCell>
        <mxCell id="f_WUbL0dvEo4hb0WviOG-14" value="" style="shape=tableRow;horizontal=0;startSize=0;swimlaneHead=0;swimlaneBody=0;strokeColor=inherit;top=0;left=0;bottom=0;right=0;collapsible=0;dropTarget=0;fillColor=none;points=[[0,0.5],[1,0.5]];portConstraint=eastwest;" vertex="1" parent="f_WUbL0dvEo4hb0WviOG-4">
          <mxGeometry y="160" width="510" height="40" as="geometry" />
        </mxCell>
        <mxCell id="f_WUbL0dvEo4hb0WviOG-15" value="4" style="shape=partialRectangle;html=1;whiteSpace=wrap;connectable=0;strokeColor=inherit;overflow=hidden;fillColor=none;top=0;left=0;bottom=0;right=0;pointerEvents=1;" vertex="1" parent="f_WUbL0dvEo4hb0WviOG-14">
          <mxGeometry width="74" height="40" as="geometry">
            <mxRectangle width="74" height="40" as="alternateBounds" />
          </mxGeometry>
        </mxCell>
        <mxCell id="f_WUbL0dvEo4hb0WviOG-16" value="Read Gusainji na 252 varta" style="shape=partialRectangle;html=1;whiteSpace=wrap;connectable=0;strokeColor=inherit;overflow=hidden;fillColor=none;top=0;left=0;bottom=0;right=0;pointerEvents=1;" vertex="1" parent="f_WUbL0dvEo4hb0WviOG-14">
          <mxGeometry x="74" width="266" height="40" as="geometry">
            <mxRectangle width="266" height="40" as="alternateBounds" />
          </mxGeometry>
        </mxCell>
        <mxCell id="f_WUbL0dvEo4hb0WviOG-24" value="30min" style="shape=partialRectangle;html=1;whiteSpace=wrap;connectable=0;strokeColor=inherit;overflow=hidden;fillColor=none;top=0;left=0;bottom=0;right=0;pointerEvents=1;" vertex="1" parent="f_WUbL0dvEo4hb0WviOG-14">
          <mxGeometry x="340" width="70" height="40" as="geometry">
            <mxRectangle width="70" height="40" as="alternateBounds" />
          </mxGeometry>
        </mxCell>
        <mxCell id="f_WUbL0dvEo4hb0WviOG-20" value="After 3" style="shape=partialRectangle;html=1;whiteSpace=wrap;connectable=0;strokeColor=inherit;overflow=hidden;fillColor=none;top=0;left=0;bottom=0;right=0;pointerEvents=1;" vertex="1" parent="f_WUbL0dvEo4hb0WviOG-14">
          <mxGeometry x="410" width="100" height="40" as="geometry">
            <mxRectangle width="100" height="40" as="alternateBounds" />
          </mxGeometry>
        </mxCell>
        <mxCell id="f_WUbL0dvEo4hb0WviOG-35" style="shape=tableRow;horizontal=0;startSize=0;swimlaneHead=0;swimlaneBody=0;strokeColor=inherit;top=0;left=0;bottom=0;right=0;collapsible=0;dropTarget=0;fillColor=none;points=[[0,0.5],[1,0.5]];portConstraint=eastwest;" vertex="1" parent="f_WUbL0dvEo4hb0WviOG-4">
          <mxGeometry y="200" width="510" height="40" as="geometry" />
        </mxCell>
        <mxCell id="f_WUbL0dvEo4hb0WviOG-36" value="5" style="shape=partialRectangle;html=1;whiteSpace=wrap;connectable=0;strokeColor=inherit;overflow=hidden;fillColor=none;top=0;left=0;bottom=0;right=0;pointerEvents=1;" vertex="1" parent="f_WUbL0dvEo4hb0WviOG-35">
          <mxGeometry width="74" height="40" as="geometry">
            <mxRectangle width="74" height="40" as="alternateBounds" />
          </mxGeometry>
        </mxCell>
        <mxCell id="f_WUbL0dvEo4hb0WviOG-37" value="Read Maharaprabhuji 84 varta" style="shape=partialRectangle;html=1;whiteSpace=wrap;connectable=0;strokeColor=inherit;overflow=hidden;fillColor=none;top=0;left=0;bottom=0;right=0;pointerEvents=1;" vertex="1" parent="f_WUbL0dvEo4hb0WviOG-35">
          <mxGeometry x="74" width="266" height="40" as="geometry">
            <mxRectangle width="266" height="40" as="alternateBounds" />
          </mxGeometry>
        </mxCell>
        <mxCell id="f_WUbL0dvEo4hb0WviOG-38" value="30min" style="shape=partialRectangle;html=1;whiteSpace=wrap;connectable=0;strokeColor=inherit;overflow=hidden;fillColor=none;top=0;left=0;bottom=0;right=0;pointerEvents=1;" vertex="1" parent="f_WUbL0dvEo4hb0WviOG-35">
          <mxGeometry x="340" width="70" height="40" as="geometry">
            <mxRectangle width="70" height="40" as="alternateBounds" />
          </mxGeometry>
        </mxCell>
        <mxCell id="f_WUbL0dvEo4hb0WviOG-39" value="After 4" style="shape=partialRectangle;html=1;whiteSpace=wrap;connectable=0;strokeColor=inherit;overflow=hidden;fillColor=none;top=0;left=0;bottom=0;right=0;pointerEvents=1;" vertex="1" parent="f_WUbL0dvEo4hb0WviOG-35">
          <mxGeometry x="410" width="100" height="40" as="geometry">
            <mxRectangle width="100" height="40" as="alternateBounds" />
          </mxGeometry>
        </mxCell>
        <mxCell id="f_WUbL0dvEo4hb0WviOG-40" style="shape=tableRow;horizontal=0;startSize=0;swimlaneHead=0;swimlaneBody=0;strokeColor=inherit;top=0;left=0;bottom=0;right=0;collapsible=0;dropTarget=0;fillColor=none;points=[[0,0.5],[1,0.5]];portConstraint=eastwest;" vertex="1" parent="f_WUbL0dvEo4hb0WviOG-4">
          <mxGeometry y="240" width="510" height="40" as="geometry" />
        </mxCell>
        <mxCell id="f_WUbL0dvEo4hb0WviOG-41" value="6" style="shape=partialRectangle;html=1;whiteSpace=wrap;connectable=0;strokeColor=inherit;overflow=hidden;fillColor=none;top=0;left=0;bottom=0;right=0;pointerEvents=1;" vertex="1" parent="f_WUbL0dvEo4hb0WviOG-40">
          <mxGeometry width="74" height="40" as="geometry">
            <mxRectangle width="74" height="40" as="alternateBounds" />
          </mxGeometry>
        </mxCell>
        <mxCell id="f_WUbL0dvEo4hb0WviOG-42" value="Read Purshottam naam sahastra" style="shape=partialRectangle;html=1;whiteSpace=wrap;connectable=0;strokeColor=inherit;overflow=hidden;fillColor=none;top=0;left=0;bottom=0;right=0;pointerEvents=1;" vertex="1" parent="f_WUbL0dvEo4hb0WviOG-40">
          <mxGeometry x="74" width="266" height="40" as="geometry">
            <mxRectangle width="266" height="40" as="alternateBounds" />
          </mxGeometry>
        </mxCell>
        <mxCell id="f_WUbL0dvEo4hb0WviOG-43" value="60min" style="shape=partialRectangle;html=1;whiteSpace=wrap;connectable=0;strokeColor=inherit;overflow=hidden;fillColor=none;top=0;left=0;bottom=0;right=0;pointerEvents=1;" vertex="1" parent="f_WUbL0dvEo4hb0WviOG-40">
          <mxGeometry x="340" width="70" height="40" as="geometry">
            <mxRectangle width="70" height="40" as="alternateBounds" />
          </mxGeometry>
        </mxCell>
        <mxCell id="f_WUbL0dvEo4hb0WviOG-44" style="shape=partialRectangle;html=1;whiteSpace=wrap;connectable=0;strokeColor=inherit;overflow=hidden;fillColor=none;top=0;left=0;bottom=0;right=0;pointerEvents=1;" vertex="1" parent="f_WUbL0dvEo4hb0WviOG-40">
          <mxGeometry x="410" width="100" height="40" as="geometry">
            <mxRectangle width="100" height="40" as="alternateBounds" />
          </mxGeometry>
        </mxCell>
        <mxCell id="f_WUbL0dvEo4hb0WviOG-45" style="shape=tableRow;horizontal=0;startSize=0;swimlaneHead=0;swimlaneBody=0;strokeColor=inherit;top=0;left=0;bottom=0;right=0;collapsible=0;dropTarget=0;fillColor=none;points=[[0,0.5],[1,0.5]];portConstraint=eastwest;" vertex="1" parent="f_WUbL0dvEo4hb0WviOG-4">
          <mxGeometry y="280" width="510" height="40" as="geometry" />
        </mxCell>
        <mxCell id="f_WUbL0dvEo4hb0WviOG-46" value="7" style="shape=partialRectangle;html=1;whiteSpace=wrap;connectable=0;strokeColor=inherit;overflow=hidden;fillColor=none;top=0;left=0;bottom=0;right=0;pointerEvents=1;" vertex="1" parent="f_WUbL0dvEo4hb0WviOG-45">
          <mxGeometry width="74" height="40" as="geometry">
            <mxRectangle width="74" height="40" as="alternateBounds" />
          </mxGeometry>
        </mxCell>
        <mxCell id="f_WUbL0dvEo4hb0WviOG-47" value="Read Trividhnamavali" style="shape=partialRectangle;html=1;whiteSpace=wrap;connectable=0;strokeColor=inherit;overflow=hidden;fillColor=none;top=0;left=0;bottom=0;right=0;pointerEvents=1;" vertex="1" parent="f_WUbL0dvEo4hb0WviOG-45">
          <mxGeometry x="74" width="266" height="40" as="geometry">
            <mxRectangle width="266" height="40" as="alternateBounds" />
          </mxGeometry>
        </mxCell>
        <mxCell id="f_WUbL0dvEo4hb0WviOG-48" value="60min" style="shape=partialRectangle;html=1;whiteSpace=wrap;connectable=0;strokeColor=inherit;overflow=hidden;fillColor=none;top=0;left=0;bottom=0;right=0;pointerEvents=1;" vertex="1" parent="f_WUbL0dvEo4hb0WviOG-45">
          <mxGeometry x="340" width="70" height="40" as="geometry">
            <mxRectangle width="70" height="40" as="alternateBounds" />
          </mxGeometry>
        </mxCell>
        <mxCell id="f_WUbL0dvEo4hb0WviOG-49" style="shape=partialRectangle;html=1;whiteSpace=wrap;connectable=0;strokeColor=inherit;overflow=hidden;fillColor=none;top=0;left=0;bottom=0;right=0;pointerEvents=1;" vertex="1" parent="f_WUbL0dvEo4hb0WviOG-45">
          <mxGeometry x="410" width="100" height="40" as="geometry">
            <mxRectangle width="100" height="40" as="alternateBounds" />
          </mxGeometry>
        </mxCell>
        <mxCell id="f_WUbL0dvEo4hb0WviOG-50" style="shape=tableRow;horizontal=0;startSize=0;swimlaneHead=0;swimlaneBody=0;strokeColor=inherit;top=0;left=0;bottom=0;right=0;collapsible=0;dropTarget=0;fillColor=none;points=[[0,0.5],[1,0.5]];portConstraint=eastwest;" vertex="1" parent="f_WUbL0dvEo4hb0WviOG-4">
          <mxGeometry y="320" width="510" height="40" as="geometry" />
        </mxCell>
        <mxCell id="f_WUbL0dvEo4hb0WviOG-51" value="8" style="shape=partialRectangle;html=1;whiteSpace=wrap;connectable=0;strokeColor=inherit;overflow=hidden;fillColor=none;top=0;left=0;bottom=0;right=0;pointerEvents=1;" vertex="1" parent="f_WUbL0dvEo4hb0WviOG-50">
          <mxGeometry width="74" height="40" as="geometry">
            <mxRectangle width="74" height="40" as="alternateBounds" />
          </mxGeometry>
        </mxCell>
        <mxCell id="f_WUbL0dvEo4hb0WviOG-52" value="Guruvani and make notes" style="shape=partialRectangle;html=1;whiteSpace=wrap;connectable=0;strokeColor=inherit;overflow=hidden;fillColor=none;top=0;left=0;bottom=0;right=0;pointerEvents=1;" vertex="1" parent="f_WUbL0dvEo4hb0WviOG-50">
          <mxGeometry x="74" width="266" height="40" as="geometry">
            <mxRectangle width="266" height="40" as="alternateBounds" />
          </mxGeometry>
        </mxCell>
        <mxCell id="f_WUbL0dvEo4hb0WviOG-53" value="60min" style="shape=partialRectangle;html=1;whiteSpace=wrap;connectable=0;strokeColor=inherit;overflow=hidden;fillColor=none;top=0;left=0;bottom=0;right=0;pointerEvents=1;" vertex="1" parent="f_WUbL0dvEo4hb0WviOG-50">
          <mxGeometry x="340" width="70" height="40" as="geometry">
            <mxRectangle width="70" height="40" as="alternateBounds" />
          </mxGeometry>
        </mxCell>
        <mxCell id="f_WUbL0dvEo4hb0WviOG-54" style="shape=partialRectangle;html=1;whiteSpace=wrap;connectable=0;strokeColor=inherit;overflow=hidden;fillColor=none;top=0;left=0;bottom=0;right=0;pointerEvents=1;" vertex="1" parent="f_WUbL0dvEo4hb0WviOG-50">
          <mxGeometry x="410" width="100" height="40" as="geometry">
            <mxRectangle width="100" height="40" as="alternateBounds" />
          </mxGeometry>
        </mxCell>
        <mxCell id="f_WUbL0dvEo4hb0WviOG-55" style="shape=tableRow;horizontal=0;startSize=0;swimlaneHead=0;swimlaneBody=0;strokeColor=inherit;top=0;left=0;bottom=0;right=0;collapsible=0;dropTarget=0;fillColor=none;points=[[0,0.5],[1,0.5]];portConstraint=eastwest;" vertex="1" parent="f_WUbL0dvEo4hb0WviOG-4">
          <mxGeometry y="360" width="510" height="40" as="geometry" />
        </mxCell>
        <mxCell id="f_WUbL0dvEo4hb0WviOG-56" value="9" style="shape=partialRectangle;html=1;whiteSpace=wrap;connectable=0;strokeColor=inherit;overflow=hidden;fillColor=none;top=0;left=0;bottom=0;right=0;pointerEvents=1;" vertex="1" parent="f_WUbL0dvEo4hb0WviOG-55">
          <mxGeometry width="74" height="40" as="geometry">
            <mxRectangle width="74" height="40" as="alternateBounds" />
          </mxGeometry>
        </mxCell>
        <mxCell id="f_WUbL0dvEo4hb0WviOG-57" value="Read pushtak published by ghar" style="shape=partialRectangle;html=1;whiteSpace=wrap;connectable=0;strokeColor=inherit;overflow=hidden;fillColor=none;top=0;left=0;bottom=0;right=0;pointerEvents=1;" vertex="1" parent="f_WUbL0dvEo4hb0WviOG-55">
          <mxGeometry x="74" width="266" height="40" as="geometry">
            <mxRectangle width="266" height="40" as="alternateBounds" />
          </mxGeometry>
        </mxCell>
        <mxCell id="f_WUbL0dvEo4hb0WviOG-58" value="30min" style="shape=partialRectangle;html=1;whiteSpace=wrap;connectable=0;strokeColor=inherit;overflow=hidden;fillColor=none;top=0;left=0;bottom=0;right=0;pointerEvents=1;" vertex="1" parent="f_WUbL0dvEo4hb0WviOG-55">
          <mxGeometry x="340" width="70" height="40" as="geometry">
            <mxRectangle width="70" height="40" as="alternateBounds" />
          </mxGeometry>
        </mxCell>
        <mxCell id="f_WUbL0dvEo4hb0WviOG-59" style="shape=partialRectangle;html=1;whiteSpace=wrap;connectable=0;strokeColor=inherit;overflow=hidden;fillColor=none;top=0;left=0;bottom=0;right=0;pointerEvents=1;" vertex="1" parent="f_WUbL0dvEo4hb0WviOG-55">
          <mxGeometry x="410" width="100" height="40" as="geometry">
            <mxRectangle width="100" height="40" as="alternateBounds" />
          </mxGeometry>
        </mxCell>
        <mxCell id="f_WUbL0dvEo4hb0WviOG-60" style="shape=tableRow;horizontal=0;startSize=0;swimlaneHead=0;swimlaneBody=0;strokeColor=inherit;top=0;left=0;bottom=0;right=0;collapsible=0;dropTarget=0;fillColor=none;points=[[0,0.5],[1,0.5]];portConstraint=eastwest;" vertex="1" parent="f_WUbL0dvEo4hb0WviOG-4">
          <mxGeometry y="400" width="510" height="40" as="geometry" />
        </mxCell>
        <mxCell id="f_WUbL0dvEo4hb0WviOG-61" value="10" style="shape=partialRectangle;html=1;whiteSpace=wrap;connectable=0;strokeColor=inherit;overflow=hidden;fillColor=none;top=0;left=0;bottom=0;right=0;pointerEvents=1;" vertex="1" parent="f_WUbL0dvEo4hb0WviOG-60">
          <mxGeometry width="74" height="40" as="geometry">
            <mxRectangle width="74" height="40" as="alternateBounds" />
          </mxGeometry>
        </mxCell>
        <mxCell id="f_WUbL0dvEo4hb0WviOG-62" value="1 Vallabhakhyan" style="shape=partialRectangle;html=1;whiteSpace=wrap;connectable=0;strokeColor=inherit;overflow=hidden;fillColor=none;top=0;left=0;bottom=0;right=0;pointerEvents=1;" vertex="1" parent="f_WUbL0dvEo4hb0WviOG-60">
          <mxGeometry x="74" width="266" height="40" as="geometry">
            <mxRectangle width="266" height="40" as="alternateBounds" />
          </mxGeometry>
        </mxCell>
        <mxCell id="f_WUbL0dvEo4hb0WviOG-63" value="5min" style="shape=partialRectangle;html=1;whiteSpace=wrap;connectable=0;strokeColor=inherit;overflow=hidden;fillColor=none;top=0;left=0;bottom=0;right=0;pointerEvents=1;" vertex="1" parent="f_WUbL0dvEo4hb0WviOG-60">
          <mxGeometry x="340" width="70" height="40" as="geometry">
            <mxRectangle width="70" height="40" as="alternateBounds" />
          </mxGeometry>
        </mxCell>
        <mxCell id="f_WUbL0dvEo4hb0WviOG-64" value="Daily" style="shape=partialRectangle;html=1;whiteSpace=wrap;connectable=0;strokeColor=inherit;overflow=hidden;fillColor=none;top=0;left=0;bottom=0;right=0;pointerEvents=1;" vertex="1" parent="f_WUbL0dvEo4hb0WviOG-60">
          <mxGeometry x="410" width="100" height="40" as="geometry">
            <mxRectangle width="100" height="40" as="alternateBounds" />
          </mxGeometry>
        </mxCell>
        <mxCell id="f_WUbL0dvEo4hb0WviOG-65" value="Health" style="shape=table;startSize=30;container=1;collapsible=0;childLayout=tableLayout;" vertex="1" parent="1">
          <mxGeometry x="900" y="90" width="510" height="340" as="geometry" />
        </mxCell>
        <mxCell id="f_WUbL0dvEo4hb0WviOG-66" value="" style="shape=tableRow;horizontal=0;startSize=0;swimlaneHead=0;swimlaneBody=0;strokeColor=inherit;top=0;left=0;bottom=0;right=0;collapsible=0;dropTarget=0;fillColor=none;points=[[0,0.5],[1,0.5]];portConstraint=eastwest;" vertex="1" parent="f_WUbL0dvEo4hb0WviOG-65">
          <mxGeometry y="30" width="510" height="40" as="geometry" />
        </mxCell>
        <mxCell id="f_WUbL0dvEo4hb0WviOG-67" value="Sr No" style="shape=partialRectangle;html=1;whiteSpace=wrap;connectable=0;strokeColor=inherit;overflow=hidden;fillColor=none;top=0;left=0;bottom=0;right=0;pointerEvents=1;" vertex="1" parent="f_WUbL0dvEo4hb0WviOG-66">
          <mxGeometry width="50" height="40" as="geometry">
            <mxRectangle width="50" height="40" as="alternateBounds" />
          </mxGeometry>
        </mxCell>
        <mxCell id="f_WUbL0dvEo4hb0WviOG-68" value="Topic" style="shape=partialRectangle;html=1;whiteSpace=wrap;connectable=0;strokeColor=inherit;overflow=hidden;fillColor=none;top=0;left=0;bottom=0;right=0;pointerEvents=1;" vertex="1" parent="f_WUbL0dvEo4hb0WviOG-66">
          <mxGeometry x="50" width="160" height="40" as="geometry">
            <mxRectangle width="160" height="40" as="alternateBounds" />
          </mxGeometry>
        </mxCell>
        <mxCell id="f_WUbL0dvEo4hb0WviOG-69" value="Time" style="shape=partialRectangle;html=1;whiteSpace=wrap;connectable=0;strokeColor=inherit;overflow=hidden;fillColor=none;top=0;left=0;bottom=0;right=0;pointerEvents=1;" vertex="1" parent="f_WUbL0dvEo4hb0WviOG-66">
          <mxGeometry x="210" width="100" height="40" as="geometry">
            <mxRectangle width="100" height="40" as="alternateBounds" />
          </mxGeometry>
        </mxCell>
        <mxCell id="f_WUbL0dvEo4hb0WviOG-70" value="Frequency" style="shape=partialRectangle;html=1;whiteSpace=wrap;connectable=0;strokeColor=inherit;overflow=hidden;fillColor=none;top=0;left=0;bottom=0;right=0;pointerEvents=1;" vertex="1" parent="f_WUbL0dvEo4hb0WviOG-66">
          <mxGeometry x="310" width="200" height="40" as="geometry">
            <mxRectangle width="200" height="40" as="alternateBounds" />
          </mxGeometry>
        </mxCell>
        <mxCell id="f_WUbL0dvEo4hb0WviOG-71" value="" style="shape=tableRow;horizontal=0;startSize=0;swimlaneHead=0;swimlaneBody=0;strokeColor=inherit;top=0;left=0;bottom=0;right=0;collapsible=0;dropTarget=0;fillColor=none;points=[[0,0.5],[1,0.5]];portConstraint=eastwest;" vertex="1" parent="f_WUbL0dvEo4hb0WviOG-65">
          <mxGeometry y="70" width="510" height="40" as="geometry" />
        </mxCell>
        <mxCell id="f_WUbL0dvEo4hb0WviOG-72" value="1" style="shape=partialRectangle;html=1;whiteSpace=wrap;connectable=0;strokeColor=inherit;overflow=hidden;fillColor=none;top=0;left=0;bottom=0;right=0;pointerEvents=1;" vertex="1" parent="f_WUbL0dvEo4hb0WviOG-71">
          <mxGeometry width="50" height="40" as="geometry">
            <mxRectangle width="50" height="40" as="alternateBounds" />
          </mxGeometry>
        </mxCell>
        <mxCell id="f_WUbL0dvEo4hb0WviOG-73" value="Exercise" style="shape=partialRectangle;html=1;whiteSpace=wrap;connectable=0;strokeColor=inherit;overflow=hidden;fillColor=none;top=0;left=0;bottom=0;right=0;pointerEvents=1;" vertex="1" parent="f_WUbL0dvEo4hb0WviOG-71">
          <mxGeometry x="50" width="160" height="40" as="geometry">
            <mxRectangle width="160" height="40" as="alternateBounds" />
          </mxGeometry>
        </mxCell>
        <mxCell id="f_WUbL0dvEo4hb0WviOG-74" value="30min" style="shape=partialRectangle;html=1;whiteSpace=wrap;connectable=0;strokeColor=inherit;overflow=hidden;fillColor=none;top=0;left=0;bottom=0;right=0;pointerEvents=1;" vertex="1" parent="f_WUbL0dvEo4hb0WviOG-71">
          <mxGeometry x="210" width="100" height="40" as="geometry">
            <mxRectangle width="100" height="40" as="alternateBounds" />
          </mxGeometry>
        </mxCell>
        <mxCell id="f_WUbL0dvEo4hb0WviOG-75" value="Daily" style="shape=partialRectangle;html=1;whiteSpace=wrap;connectable=0;strokeColor=inherit;overflow=hidden;fillColor=none;top=0;left=0;bottom=0;right=0;pointerEvents=1;" vertex="1" parent="f_WUbL0dvEo4hb0WviOG-71">
          <mxGeometry x="310" width="200" height="40" as="geometry">
            <mxRectangle width="200" height="40" as="alternateBounds" />
          </mxGeometry>
        </mxCell>
        <mxCell id="f_WUbL0dvEo4hb0WviOG-76" value="" style="shape=tableRow;horizontal=0;startSize=0;swimlaneHead=0;swimlaneBody=0;strokeColor=inherit;top=0;left=0;bottom=0;right=0;collapsible=0;dropTarget=0;fillColor=none;points=[[0,0.5],[1,0.5]];portConstraint=eastwest;" vertex="1" parent="f_WUbL0dvEo4hb0WviOG-65">
          <mxGeometry y="110" width="510" height="40" as="geometry" />
        </mxCell>
        <mxCell id="f_WUbL0dvEo4hb0WviOG-77" value="2" style="shape=partialRectangle;html=1;whiteSpace=wrap;connectable=0;strokeColor=inherit;overflow=hidden;fillColor=none;top=0;left=0;bottom=0;right=0;pointerEvents=1;" vertex="1" parent="f_WUbL0dvEo4hb0WviOG-76">
          <mxGeometry width="50" height="40" as="geometry">
            <mxRectangle width="50" height="40" as="alternateBounds" />
          </mxGeometry>
        </mxCell>
        <mxCell id="f_WUbL0dvEo4hb0WviOG-78" value="Walk" style="shape=partialRectangle;html=1;whiteSpace=wrap;connectable=0;strokeColor=inherit;overflow=hidden;fillColor=none;top=0;left=0;bottom=0;right=0;pointerEvents=1;" vertex="1" parent="f_WUbL0dvEo4hb0WviOG-76">
          <mxGeometry x="50" width="160" height="40" as="geometry">
            <mxRectangle width="160" height="40" as="alternateBounds" />
          </mxGeometry>
        </mxCell>
        <mxCell id="f_WUbL0dvEo4hb0WviOG-79" value="1hrs" style="shape=partialRectangle;html=1;whiteSpace=wrap;connectable=0;strokeColor=inherit;overflow=hidden;fillColor=none;top=0;left=0;bottom=0;right=0;pointerEvents=1;" vertex="1" parent="f_WUbL0dvEo4hb0WviOG-76">
          <mxGeometry x="210" width="100" height="40" as="geometry">
            <mxRectangle width="100" height="40" as="alternateBounds" />
          </mxGeometry>
        </mxCell>
        <mxCell id="f_WUbL0dvEo4hb0WviOG-80" value="Daily" style="shape=partialRectangle;html=1;whiteSpace=wrap;connectable=0;strokeColor=inherit;overflow=hidden;fillColor=none;top=0;left=0;bottom=0;right=0;pointerEvents=1;" vertex="1" parent="f_WUbL0dvEo4hb0WviOG-76">
          <mxGeometry x="310" width="200" height="40" as="geometry">
            <mxRectangle width="200" height="40" as="alternateBounds" />
          </mxGeometry>
        </mxCell>
        <mxCell id="f_WUbL0dvEo4hb0WviOG-81" value="" style="shape=tableRow;horizontal=0;startSize=0;swimlaneHead=0;swimlaneBody=0;strokeColor=inherit;top=0;left=0;bottom=0;right=0;collapsible=0;dropTarget=0;fillColor=none;points=[[0,0.5],[1,0.5]];portConstraint=eastwest;" vertex="1" parent="f_WUbL0dvEo4hb0WviOG-65">
          <mxGeometry y="150" width="510" height="40" as="geometry" />
        </mxCell>
        <mxCell id="f_WUbL0dvEo4hb0WviOG-82" value="3" style="shape=partialRectangle;html=1;whiteSpace=wrap;connectable=0;strokeColor=inherit;overflow=hidden;fillColor=none;top=0;left=0;bottom=0;right=0;pointerEvents=1;" vertex="1" parent="f_WUbL0dvEo4hb0WviOG-81">
          <mxGeometry width="50" height="40" as="geometry">
            <mxRectangle width="50" height="40" as="alternateBounds" />
          </mxGeometry>
        </mxCell>
        <mxCell id="f_WUbL0dvEo4hb0WviOG-83" value="Cold Bath" style="shape=partialRectangle;html=1;whiteSpace=wrap;connectable=0;strokeColor=inherit;overflow=hidden;fillColor=none;top=0;left=0;bottom=0;right=0;pointerEvents=1;" vertex="1" parent="f_WUbL0dvEo4hb0WviOG-81">
          <mxGeometry x="50" width="160" height="40" as="geometry">
            <mxRectangle width="160" height="40" as="alternateBounds" />
          </mxGeometry>
        </mxCell>
        <mxCell id="f_WUbL0dvEo4hb0WviOG-84" value="15min" style="shape=partialRectangle;html=1;whiteSpace=wrap;connectable=0;strokeColor=inherit;overflow=hidden;fillColor=none;top=0;left=0;bottom=0;right=0;pointerEvents=1;" vertex="1" parent="f_WUbL0dvEo4hb0WviOG-81">
          <mxGeometry x="210" width="100" height="40" as="geometry">
            <mxRectangle width="100" height="40" as="alternateBounds" />
          </mxGeometry>
        </mxCell>
        <mxCell id="f_WUbL0dvEo4hb0WviOG-85" value="Daily" style="shape=partialRectangle;html=1;whiteSpace=wrap;connectable=0;strokeColor=inherit;overflow=hidden;fillColor=none;top=0;left=0;bottom=0;right=0;pointerEvents=1;" vertex="1" parent="f_WUbL0dvEo4hb0WviOG-81">
          <mxGeometry x="310" width="200" height="40" as="geometry">
            <mxRectangle width="200" height="40" as="alternateBounds" />
          </mxGeometry>
        </mxCell>
        <mxCell id="f_WUbL0dvEo4hb0WviOG-86" value="" style="shape=tableRow;horizontal=0;startSize=0;swimlaneHead=0;swimlaneBody=0;strokeColor=inherit;top=0;left=0;bottom=0;right=0;collapsible=0;dropTarget=0;fillColor=none;points=[[0,0.5],[1,0.5]];portConstraint=eastwest;" vertex="1" parent="f_WUbL0dvEo4hb0WviOG-65">
          <mxGeometry y="190" width="510" height="30" as="geometry" />
        </mxCell>
        <mxCell id="f_WUbL0dvEo4hb0WviOG-87" value="4" style="shape=partialRectangle;html=1;whiteSpace=wrap;connectable=0;strokeColor=inherit;overflow=hidden;fillColor=none;top=0;left=0;bottom=0;right=0;pointerEvents=1;" vertex="1" parent="f_WUbL0dvEo4hb0WviOG-86">
          <mxGeometry width="50" height="30" as="geometry">
            <mxRectangle width="50" height="30" as="alternateBounds" />
          </mxGeometry>
        </mxCell>
        <mxCell id="f_WUbL0dvEo4hb0WviOG-88" value="Diet" style="shape=partialRectangle;html=1;whiteSpace=wrap;connectable=0;strokeColor=inherit;overflow=hidden;fillColor=none;top=0;left=0;bottom=0;right=0;pointerEvents=1;" vertex="1" parent="f_WUbL0dvEo4hb0WviOG-86">
          <mxGeometry x="50" width="160" height="30" as="geometry">
            <mxRectangle width="160" height="30" as="alternateBounds" />
          </mxGeometry>
        </mxCell>
        <mxCell id="f_WUbL0dvEo4hb0WviOG-89" value="" style="shape=partialRectangle;html=1;whiteSpace=wrap;connectable=0;strokeColor=inherit;overflow=hidden;fillColor=none;top=0;left=0;bottom=0;right=0;pointerEvents=1;" vertex="1" parent="f_WUbL0dvEo4hb0WviOG-86">
          <mxGeometry x="210" width="100" height="30" as="geometry">
            <mxRectangle width="100" height="30" as="alternateBounds" />
          </mxGeometry>
        </mxCell>
        <mxCell id="f_WUbL0dvEo4hb0WviOG-90" value="Daily" style="shape=partialRectangle;html=1;whiteSpace=wrap;connectable=0;strokeColor=inherit;overflow=hidden;fillColor=none;top=0;left=0;bottom=0;right=0;pointerEvents=1;" vertex="1" parent="f_WUbL0dvEo4hb0WviOG-86">
          <mxGeometry x="310" width="200" height="30" as="geometry">
            <mxRectangle width="200" height="30" as="alternateBounds" />
          </mxGeometry>
        </mxCell>
        <mxCell id="f_WUbL0dvEo4hb0WviOG-91" value="" style="shape=tableRow;horizontal=0;startSize=0;swimlaneHead=0;swimlaneBody=0;strokeColor=inherit;top=0;left=0;bottom=0;right=0;collapsible=0;dropTarget=0;fillColor=none;points=[[0,0.5],[1,0.5]];portConstraint=eastwest;" vertex="1" parent="f_WUbL0dvEo4hb0WviOG-65">
          <mxGeometry y="220" width="510" height="40" as="geometry" />
        </mxCell>
        <mxCell id="f_WUbL0dvEo4hb0WviOG-92" value="5" style="shape=partialRectangle;html=1;whiteSpace=wrap;connectable=0;strokeColor=inherit;overflow=hidden;fillColor=none;top=0;left=0;bottom=0;right=0;pointerEvents=1;" vertex="1" parent="f_WUbL0dvEo4hb0WviOG-91">
          <mxGeometry width="50" height="40" as="geometry">
            <mxRectangle width="50" height="40" as="alternateBounds" />
          </mxGeometry>
        </mxCell>
        <mxCell id="f_WUbL0dvEo4hb0WviOG-93" value="Meditation" style="shape=partialRectangle;html=1;whiteSpace=wrap;connectable=0;strokeColor=inherit;overflow=hidden;fillColor=none;top=0;left=0;bottom=0;right=0;pointerEvents=1;" vertex="1" parent="f_WUbL0dvEo4hb0WviOG-91">
          <mxGeometry x="50" width="160" height="40" as="geometry">
            <mxRectangle width="160" height="40" as="alternateBounds" />
          </mxGeometry>
        </mxCell>
        <mxCell id="f_WUbL0dvEo4hb0WviOG-94" value="15min" style="shape=partialRectangle;html=1;whiteSpace=wrap;connectable=0;strokeColor=inherit;overflow=hidden;fillColor=none;top=0;left=0;bottom=0;right=0;pointerEvents=1;" vertex="1" parent="f_WUbL0dvEo4hb0WviOG-91">
          <mxGeometry x="210" width="100" height="40" as="geometry">
            <mxRectangle width="100" height="40" as="alternateBounds" />
          </mxGeometry>
        </mxCell>
        <mxCell id="f_WUbL0dvEo4hb0WviOG-95" value="Daily" style="shape=partialRectangle;html=1;whiteSpace=wrap;connectable=0;strokeColor=inherit;overflow=hidden;fillColor=none;top=0;left=0;bottom=0;right=0;pointerEvents=1;" vertex="1" parent="f_WUbL0dvEo4hb0WviOG-91">
          <mxGeometry x="310" width="200" height="40" as="geometry">
            <mxRectangle width="200" height="40" as="alternateBounds" />
          </mxGeometry>
        </mxCell>
        <mxCell id="f_WUbL0dvEo4hb0WviOG-96" style="shape=tableRow;horizontal=0;startSize=0;swimlaneHead=0;swimlaneBody=0;strokeColor=inherit;top=0;left=0;bottom=0;right=0;collapsible=0;dropTarget=0;fillColor=none;points=[[0,0.5],[1,0.5]];portConstraint=eastwest;" vertex="1" parent="f_WUbL0dvEo4hb0WviOG-65">
          <mxGeometry y="260" width="510" height="40" as="geometry" />
        </mxCell>
        <mxCell id="f_WUbL0dvEo4hb0WviOG-97" value="6" style="shape=partialRectangle;html=1;whiteSpace=wrap;connectable=0;strokeColor=inherit;overflow=hidden;fillColor=none;top=0;left=0;bottom=0;right=0;pointerEvents=1;" vertex="1" parent="f_WUbL0dvEo4hb0WviOG-96">
          <mxGeometry width="50" height="40" as="geometry">
            <mxRectangle width="50" height="40" as="alternateBounds" />
          </mxGeometry>
        </mxCell>
        <mxCell id="f_WUbL0dvEo4hb0WviOG-98" value="Sleep" style="shape=partialRectangle;html=1;whiteSpace=wrap;connectable=0;strokeColor=inherit;overflow=hidden;fillColor=none;top=0;left=0;bottom=0;right=0;pointerEvents=1;" vertex="1" parent="f_WUbL0dvEo4hb0WviOG-96">
          <mxGeometry x="50" width="160" height="40" as="geometry">
            <mxRectangle width="160" height="40" as="alternateBounds" />
          </mxGeometry>
        </mxCell>
        <mxCell id="f_WUbL0dvEo4hb0WviOG-99" value="8hrs" style="shape=partialRectangle;html=1;whiteSpace=wrap;connectable=0;strokeColor=inherit;overflow=hidden;fillColor=none;top=0;left=0;bottom=0;right=0;pointerEvents=1;" vertex="1" parent="f_WUbL0dvEo4hb0WviOG-96">
          <mxGeometry x="210" width="100" height="40" as="geometry">
            <mxRectangle width="100" height="40" as="alternateBounds" />
          </mxGeometry>
        </mxCell>
        <mxCell id="f_WUbL0dvEo4hb0WviOG-100" value="Daily" style="shape=partialRectangle;html=1;whiteSpace=wrap;connectable=0;strokeColor=inherit;overflow=hidden;fillColor=none;top=0;left=0;bottom=0;right=0;pointerEvents=1;" vertex="1" parent="f_WUbL0dvEo4hb0WviOG-96">
          <mxGeometry x="310" width="200" height="40" as="geometry">
            <mxRectangle width="200" height="40" as="alternateBounds" />
          </mxGeometry>
        </mxCell>
        <mxCell id="f_WUbL0dvEo4hb0WviOG-101" style="shape=tableRow;horizontal=0;startSize=0;swimlaneHead=0;swimlaneBody=0;strokeColor=inherit;top=0;left=0;bottom=0;right=0;collapsible=0;dropTarget=0;fillColor=none;points=[[0,0.5],[1,0.5]];portConstraint=eastwest;" vertex="1" parent="f_WUbL0dvEo4hb0WviOG-65">
          <mxGeometry y="300" width="510" height="40" as="geometry" />
        </mxCell>
        <mxCell id="f_WUbL0dvEo4hb0WviOG-102" value="7" style="shape=partialRectangle;html=1;whiteSpace=wrap;connectable=0;strokeColor=inherit;overflow=hidden;fillColor=none;top=0;left=0;bottom=0;right=0;pointerEvents=1;" vertex="1" parent="f_WUbL0dvEo4hb0WviOG-101">
          <mxGeometry width="50" height="40" as="geometry">
            <mxRectangle width="50" height="40" as="alternateBounds" />
          </mxGeometry>
        </mxCell>
        <mxCell id="f_WUbL0dvEo4hb0WviOG-103" value="Nutrition" style="shape=partialRectangle;html=1;whiteSpace=wrap;connectable=0;strokeColor=inherit;overflow=hidden;fillColor=none;top=0;left=0;bottom=0;right=0;pointerEvents=1;" vertex="1" parent="f_WUbL0dvEo4hb0WviOG-101">
          <mxGeometry x="50" width="160" height="40" as="geometry">
            <mxRectangle width="160" height="40" as="alternateBounds" />
          </mxGeometry>
        </mxCell>
        <mxCell id="f_WUbL0dvEo4hb0WviOG-104" value="5min" style="shape=partialRectangle;html=1;whiteSpace=wrap;connectable=0;strokeColor=inherit;overflow=hidden;fillColor=none;top=0;left=0;bottom=0;right=0;pointerEvents=1;" vertex="1" parent="f_WUbL0dvEo4hb0WviOG-101">
          <mxGeometry x="210" width="100" height="40" as="geometry">
            <mxRectangle width="100" height="40" as="alternateBounds" />
          </mxGeometry>
        </mxCell>
        <mxCell id="f_WUbL0dvEo4hb0WviOG-105" value="Daily" style="shape=partialRectangle;html=1;whiteSpace=wrap;connectable=0;strokeColor=inherit;overflow=hidden;fillColor=none;top=0;left=0;bottom=0;right=0;pointerEvents=1;" vertex="1" parent="f_WUbL0dvEo4hb0WviOG-101">
          <mxGeometry x="310" width="200" height="40" as="geometry">
            <mxRectangle width="200" height="40" as="alternateBounds" />
          </mxGeometry>
        </mxCell>
      </root>
    </mxGraphModel>
  </diagram>
</mxfile>
